<svg id="圖層_1" data-name="圖層 1" xmlns="http://www.w3.org/2000/svg" viewBox="0 0 340.16 344.66"><defs><style>.cls-1{fill:#007873;}.cls-2{fill:#4c9d9b;}.cls-3{fill:#cae0df;}.cls-4{fill:#8fbebb;}.cls-5{fill:#e4efee;}</style></defs><path class="cls-1" d="M67.32,299.11V283.42A1.5,1.5,0,0,1,68.8,282H86.86V271a1.46,1.46,0,0,1,1.47-1.44h3.18A1.5,1.5,0,0,1,93,271v28.16a1.5,1.5,0,0,1-1.48,1.44H88.33a1.46,1.46,0,0,1-1.47-1.44V288H73.45v11.08A1.46,1.46,0,0,1,72,300.55H68.8A1.5,1.5,0,0,1,67.32,299.11Zm0-20.38V271a1.5,1.5,0,0,1,1.48-1.44H72A1.46,1.46,0,0,1,73.45,271v7.78A1.47,1.47,0,0,1,72,280.21H68.8A1.5,1.5,0,0,1,67.32,278.73Z"/><path class="cls-1" d="M97.22,285a15.73,15.73,0,0,1,13-15.86,2,2,0,0,1,1.18.29,1.78,1.78,0,0,1,.51,1.23v3.17a1.48,1.48,0,0,1-1.18,1.44c-4.44,1.06-7.28,4.69-7.28,9.73,0,4.86,2.75,8.63,7.28,9.68a1.48,1.48,0,0,1,1.18,1.44v3.17a1.54,1.54,0,0,1-1.69,1.57A15.78,15.78,0,0,1,97.22,285Z"/><path class="cls-1" d="M133.41,299.07v-13a1.49,1.49,0,0,1,1.44-1.48h12.43c3.6,0,5.25-1.57,5.25-4.57s-1.61-4.57-5.25-4.57H134.85a1.49,1.49,0,0,1-1.44-1.48v-3a1.5,1.5,0,0,1,1.44-1.48h12.69c6.68,0,11.08,4.23,11.08,10.53s-4.4,10.49-11.08,10.49h-8v8.54a1.47,1.47,0,0,1-1.44,1.48h-3.22A1.5,1.5,0,0,1,133.41,299.07Z"/><path class="cls-1" d="M162,274.08V271a1.49,1.49,0,0,1,1.4-1.48h20.72a1.45,1.45,0,0,1,1.39,1.48v3.09a1.44,1.44,0,0,1-1.39,1.44H163.4A1.48,1.48,0,0,1,162,274.08Zm0,25V296a1.47,1.47,0,0,1,1.4-1.43h20.72a1.44,1.44,0,0,1,1.39,1.43v3.09a1.45,1.45,0,0,1-1.39,1.48H163.4A1.49,1.49,0,0,1,162,299.07Z"/><path class="cls-1" d="M190.59,299.07V283.81a1.46,1.46,0,0,1,1.44-1.49h18.43a1.48,1.48,0,0,1,1.52,1.49v3.12a1.49,1.49,0,0,1-1.52,1.44H196.68v10.7a1.48,1.48,0,0,1-1.48,1.48H192A1.49,1.49,0,0,1,190.59,299.07Z"/><path class="cls-1" d="M228.35,300.76c-6.3-1.27-10.4-6.64-10.4-13.7v-16a1.43,1.43,0,0,1,1.43-1.56h3.22a1.5,1.5,0,0,1,1.48,1.56v16.08c0,3.84,1.73,6.76,4.9,7.56a1.4,1.4,0,0,1,1.1,1.4v3.17a1.48,1.48,0,0,1-1.48,1.53A.45.45,0,0,1,228.35,300.76Z"/><path class="cls-1" d="M251.4,299.07V271a1.5,1.5,0,0,1,1.48-1.48h3.17a1.5,1.5,0,0,1,1.48,1.48v28.08a1.5,1.5,0,0,1-1.48,1.48h-3.17A1.5,1.5,0,0,1,251.4,299.07Z"/><path class="cls-2" d="M114.51,299.24v-3.17a1.49,1.49,0,0,1,1.19-1.44c4.52-1.05,7.27-4.82,7.27-9.68s-2.83-8.72-7.27-9.73a1.42,1.42,0,0,1-1.19-1.44v-3.17c0-1,.64-1.52,1.69-1.52a14.86,14.86,0,0,1,8.5,4.48A15.48,15.48,0,0,1,129.19,285a15.79,15.79,0,0,1-13,15.86A1.52,1.52,0,0,1,114.51,299.24Z"/><path class="cls-2" d="M232.75,299.24v-3.17a1.43,1.43,0,0,1,1.1-1.36c3.21-.93,4.91-3.67,4.91-7.56V271.07a1.49,1.49,0,0,1,1.47-1.56h3.18a1.45,1.45,0,0,1,1.48,1.56v16c0,7.06-4.11,12.43-10.41,13.7a.45.45,0,0,1-.25.05A1.45,1.45,0,0,1,232.75,299.24Z"/><path class="cls-2" d="M67.32,278.73V271a1.5,1.5,0,0,1,1.48-1.44H72A1.46,1.46,0,0,1,73.45,271v7.78A1.47,1.47,0,0,1,72,280.21H68.8A1.5,1.5,0,0,1,67.32,278.73Z"/><path class="cls-2" d="M162,286.59v-3.17a1.49,1.49,0,0,1,1.4-1.48h18.81a1.51,1.51,0,0,1,1.53,1.48v3.17a1.51,1.51,0,0,1-1.53,1.48H163.4A1.48,1.48,0,0,1,162,286.59Z"/><path class="cls-2" d="M190.59,274v-3a1.49,1.49,0,0,1,1.44-1.48h20.34A1.49,1.49,0,0,1,213.8,271v3a1.49,1.49,0,0,1-1.43,1.49H192A1.49,1.49,0,0,1,190.59,274Z"/><path class="cls-2" d="M260.11,299.07v-3a1.46,1.46,0,0,1,1.48-1.48h9.76a1.47,1.47,0,0,1,1.49,1.48v3a1.48,1.48,0,0,1-1.49,1.48h-9.76A1.47,1.47,0,0,1,260.11,299.07Z"/><path class="cls-1" d="M162,299.07V296a1.47,1.47,0,0,1,1.4-1.43h20.72a1.44,1.44,0,0,1,1.39,1.43v3.09a1.45,1.45,0,0,1-1.39,1.48H163.4A1.49,1.49,0,0,1,162,299.07Z"/><path class="cls-1" d="M67.32,299.11V283.42A1.5,1.5,0,0,1,68.8,282H86.86V271a1.46,1.46,0,0,1,1.47-1.44h3.18A1.5,1.5,0,0,1,93,271v28.16a1.5,1.5,0,0,1-1.48,1.44H88.33a1.46,1.46,0,0,1-1.47-1.44V288H73.45v11.08A1.46,1.46,0,0,1,72,300.55H68.8A1.5,1.5,0,0,1,67.32,299.11Z"/><path class="cls-1" d="M133.41,299.07v-13a1.49,1.49,0,0,1,1.44-1.48h12.43c3.6,0,5.25-1.57,5.25-4.57s-1.61-4.57-5.25-4.57H134.85a1.49,1.49,0,0,1-1.44-1.48v-3a1.5,1.5,0,0,1,1.44-1.48h12.69c6.68,0,11.08,4.23,11.08,10.53s-4.4,10.49-11.08,10.49h-8v8.54a1.47,1.47,0,0,1-1.44,1.48h-3.22A1.5,1.5,0,0,1,133.41,299.07Z"/><path class="cls-1" d="M228.35,300.76c-6.3-1.27-10.4-6.64-10.4-13.7v-16a1.43,1.43,0,0,1,1.43-1.56h3.22a1.5,1.5,0,0,1,1.48,1.56v16.08c0,3.84,1.73,6.76,4.9,7.56a1.4,1.4,0,0,1,1.1,1.4v3.17a1.48,1.48,0,0,1-1.48,1.53A.45.45,0,0,1,228.35,300.76Z"/><path class="cls-1" d="M117.33,328.81c0-7.78,4.57-14.25,11.68-15.65a1.05,1.05,0,0,1,.33,0,1.55,1.55,0,0,1,.94.34,1.43,1.43,0,0,1,.55,1.14v3.3a1.58,1.58,0,0,1-1.1,1.43c-4.15,1.1-6.22,5-6.22,9.48,0,4.69,2.16,8.28,6.22,9.47a1.57,1.57,0,0,1,1.1,1.4V343c0,1.14-1,1.48-1.82,1.48C121.9,343,117.33,336.63,117.33,328.81Zm16.11,14.37V340.1a1.47,1.47,0,0,1,1.23-1.48,8,8,0,0,0,6-4.7A1.52,1.52,0,0,1,142,333h3.38a1.46,1.46,0,0,1,1.48,1.48,2.26,2.26,0,0,1-.08.5,14.31,14.31,0,0,1-11.67,9.64A1.51,1.51,0,0,1,133.44,343.18Z"/><path class="cls-1" d="M152.75,343V327.28a1.49,1.49,0,0,1,1.44-1.47h3.21a1.45,1.45,0,0,1,1.44,1.47V343a1.45,1.45,0,0,1-1.44,1.44h-3.21A1.48,1.48,0,0,1,152.75,343Z"/><path class="cls-1" d="M173.57,342.93v-28a1.51,1.51,0,0,1,1.52-1.52h13a1.47,1.47,0,0,1,1.44,1.52v3a1.46,1.46,0,0,1-1.44,1.48h-8.33v23.55a1.49,1.49,0,0,1-1.48,1.48h-3.17A1.5,1.5,0,0,1,173.57,342.93Z"/><path class="cls-1" d="M204.85,343V330.8a1.44,1.44,0,0,1,.3-.81l11.12-16a1.43,1.43,0,0,1,1.22-.59h3.81a1.4,1.4,0,0,1,1.31.76,1.52,1.52,0,0,1,.21.72,1.58,1.58,0,0,1-.29.85L211,332.32V343a1.46,1.46,0,0,1-1.48,1.44h-3.18A1.47,1.47,0,0,1,204.85,343Z"/><path class="cls-2" d="M163.8,317.9v-3a1.47,1.47,0,0,1,1.44-1.52h4.27a1.51,1.51,0,0,1,1.52,1.52v3a1.5,1.5,0,0,1-1.52,1.48h-4.27A1.46,1.46,0,0,1,163.8,317.9Z"/><path class="cls-2" d="M198.67,323.43l-5.37-7.73a1.53,1.53,0,0,1-.25-.85,1.45,1.45,0,0,1,1.48-1.48h3.85a1.58,1.58,0,0,1,1.23.59l5.41,7.79a1.35,1.35,0,0,1,.25.8,1.37,1.37,0,0,1-.17.72,1.46,1.46,0,0,1-1.31.8h-3.85A1.64,1.64,0,0,1,198.67,323.43Z"/><path class="cls-2" d="M140.64,323.69a7.86,7.86,0,0,0-5.92-4.69,1.47,1.47,0,0,1-1.28-1.48v-3.09a1.53,1.53,0,0,1,1.7-1.48,14.47,14.47,0,0,1,11.67,9.64,2.26,2.26,0,0,1,.08.51,1.47,1.47,0,0,1-1.48,1.48H142A1.53,1.53,0,0,1,140.64,323.69Z"/><path class="cls-1" d="M133.44,343.18V340.1a1.47,1.47,0,0,1,1.23-1.48,8,8,0,0,0,6-4.7A1.52,1.52,0,0,1,142,333h3.38a1.46,1.46,0,0,1,1.48,1.48,2.26,2.26,0,0,1-.08.5,14.31,14.31,0,0,1-11.67,9.64A1.51,1.51,0,0,1,133.44,343.18Z"/><path class="cls-2" d="M152.75,322.59v-7.78a1.49,1.49,0,0,1,1.44-1.44h3.21a1.45,1.45,0,0,1,1.44,1.44v7.78a1.46,1.46,0,0,1-1.44,1.48h-3.21A1.49,1.49,0,0,1,152.75,322.59Z"/><path class="cls-1" d="M117.33,328.81c0-7.78,4.57-14.25,11.68-15.65a1.05,1.05,0,0,1,.33,0,1.55,1.55,0,0,1,.94.34,1.43,1.43,0,0,1,.55,1.14v3.3a1.58,1.58,0,0,1-1.1,1.43c-4.15,1.1-6.22,5-6.22,9.48,0,4.69,2.16,8.28,6.22,9.47a1.57,1.57,0,0,1,1.1,1.4V343c0,1.14-1,1.48-1.82,1.48C121.9,343,117.33,336.63,117.33,328.81Z"/><path class="cls-1" d="M204.85,343V330.8a1.44,1.44,0,0,1,.3-.81l11.12-16a1.43,1.43,0,0,1,1.22-.59h3.81a1.4,1.4,0,0,1,1.31.76,1.52,1.52,0,0,1,.21.72,1.58,1.58,0,0,1-.29.85L211,332.32V343a1.46,1.46,0,0,1-1.48,1.44h-3.18A1.47,1.47,0,0,1,204.85,343Z"/><path class="cls-2" d="M77.93,164.93a48,48,0,0,0,5.56-5.41c2.24-2.36,1.82-4.3.09-5.67s-1.91-1.5-1.88-3.54a1.77,1.77,0,0,0-1.8-2,2,2,0,0,1-1.37-2.82c.73-1.5,3.31-4,.63-5s-4.29-1-6.55-1.85-2.25-.83-3.57-4.13a13.5,13.5,0,0,0-5.42-6.35,24.46,24.46,0,0,0-17.81-3.64,22.53,22.53,0,0,0-14.65,8.32c-4.54,5.51-4.81,8.57-5.42,12s-2.29,18.05,9.55,25.53a29.3,29.3,0,0,0,8.82,3.72c3.51.68,5.57,1.49,14.57-.17S71.49,169.15,77.93,164.93Z"/><path class="cls-2" d="M177.21,184.51l23.92,19.76a23.43,23.43,0,0,1,1.93-1.43,80.46,80.46,0,0,1,10.72-5.65,79.32,79.32,0,0,0,10.12-5.31c1.9-1.24,3.81-2.6,5.65-3.92a96.29,96.29,0,0,1,10.17-6.67c6.4-3.47,13.28-4.43,19.92-5.35,6-.85,11.72-1.64,17.15-4.14,4.09-1.88,8.17-4.13,12.12-6.3,6.35-3.5,12.92-7.11,19.88-9.45a29.16,29.16,0,0,1,9.94-1.33c4,0,6.7,0,9.36-3.27a20.83,20.83,0,0,0,2.53-4.1c1-2.1,1.93-5,3.59-7.57,4.26-6.66,5.83-8.64,4.83-14-1.07-3.26-4.27-.85-5.4.64-2.5,3.25-11.7,10.58-17.34,13.58-13.4,7.14-35.78,16.92-53.8,19.45-9.1,1.27-39.09,9.06-39.09,9.06S187.77,180,177.21,184.51Z"/><path class="cls-2" d="M215.33,180.54c-3.53,1.41-7.47,1.74-11.19,2.33a80.49,80.49,0,0,0-11.85,2.5c-.75.24-1.5.53-2.25.85l-17.6-25.55c15.93-4,32.07-7.75,48.23-10.63,5.9-1.06,9.47-1.45,15-2.71,13.32-3,27-5.5,39.46-8.68,10.26-2.62,14.93-3.56,20.71-8.79a59.69,59.69,0,0,0,11.63-13.32c1.59-2.43,3.11-5.71,4.62-6.63a2.18,2.18,0,0,1,3.31,1.15c.38,2.28-.09,5.52-2,10.26a36,36,0,0,0-2.9,9.4c-.49,2.77.29,6.22-3.51,8.4-2.6,1.48-4.16.42-9.36,1.63-2.6.61-6.59,2.75-15.4,7.5a121.09,121.09,0,0,1-21.42,8.8C250.68,160.84,223.8,177.15,215.33,180.54Z"/><path class="cls-3" d="M339.31,154.8c-2.27-2.65-7.28-2.73-13.77-3.74A202,202,0,0,1,182.43,53.63c10.44,19.45,17.21,44.48,21,70a202.26,202.26,0,0,0,75.42,72.54c5.75,3.17,10.43,5,11.66,8.22,1.13,3-2.37,6.53-6.64,9.47a6.64,6.64,0,0,0,3.46-1.07,205.89,205.89,0,0,0,48.15-45.71C338.91,162.59,341.59,157.45,339.31,154.8Z"/><path class="cls-4" d="M205.34,139c2.45,24.12,2.36,47.79.27,66.72a201.07,201.07,0,0,0,13.77,17.68c4.33,4.95,8.11,8.22,8.15,11.72,0,2.83-3.49,4.83-7.77,6.15a6,6,0,0,0,2-.14,206.09,206.09,0,0,0,60.88-26.48l1.18-.79C269.17,214.67,233.46,181,205.34,139Z"/><path class="cls-4" d="M49.66,204.42c1.23-3.27,5.9-5,11.66-8.22a202.16,202.16,0,0,0,75.41-72.54c3.78-25.55,10.55-50.58,21-70A202,202,0,0,1,14.61,151.06c-6.49,1-11.49,1.09-13.76,3.74s.39,7.79,3.83,12.31a206.13,206.13,0,0,0,48.16,45.71,6.59,6.59,0,0,0,3.46,1.07C52,211,48.53,207.42,49.66,204.42Z"/><path class="cls-2" d="M112.63,235.15c0-3.5,3.82-6.77,8.14-11.72a201.19,201.19,0,0,0,13.78-17.68c-2.1-18.93-2.19-42.6.27-66.72C106.69,181,71,214.67,56.3,213.89c.38.27.77.53,1.17.79a206.15,206.15,0,0,0,60.89,26.48,6,6,0,0,0,2,.14C116.11,240,112.59,238,112.63,235.15Z"/><path class="cls-3" d="M161.63,90a289.3,289.3,0,0,1-26.81,49c-2.46,24.12-2.37,47.79-.27,66.72a202.54,202.54,0,0,0,32.27-76.2A274.68,274.68,0,0,1,161.63,90Z"/><path class="cls-5" d="M157.73,53.63c.84-1.44,1.67-2.9,2.47-4.37C159.36,50.69,158.53,52.14,157.73,53.63Zm61.65,169.8a201.07,201.07,0,0,1-13.77-17.68,159,159,0,0,1-3.24,19.4c-3,12.57-7.34,20.49-12.62,21-6.56.66-13.13,1-19.67,1a206.4,206.4,0,0,0,46.59-5.1c1.05-.23,2.09-.5,3.09-.81,4.28-1.32,7.8-3.32,7.77-6.15C227.49,231.65,223.71,228.38,219.38,223.43ZM170.08,75.6c-.2-2.67-.44-5.33-.75-8a199.09,199.09,0,0,0-3.92-22.52c-.17-.72-.32-1.43-.49-2.15a.83.83,0,0,1,0-.15,4.14,4.14,0,0,1-.09-.6,4.67,4.67,0,0,1,.22-1.9,4.75,4.75,0,0,1,.48-1,4.53,4.53,0,0,0-.74,1.41,4.69,4.69,0,0,0-.2.86.77.77,0,0,1,0,.15c0,.36-.09.71-.13,1.06a200.56,200.56,0,0,1-27.67,80.92A202.16,202.16,0,0,1,61.32,196.2c-5.76,3.17-10.43,5-11.66,8.22-1.13,3,2.36,6.53,6.64,9.47C71,214.67,106.69,181,134.82,139a289.3,289.3,0,0,0,26.81-49,274.68,274.68,0,0,0,5.19,39.54,203.53,203.53,0,0,0,3.26-24.05A200.28,200.28,0,0,0,170.08,75.6Z"/><path class="cls-2" d="M173.34,129.55a202.38,202.38,0,0,0,32.27,76.2c2.09-18.93,2.18-42.6-.27-66.72a289.36,289.36,0,0,1-26.82-49A274.63,274.63,0,0,1,173.34,129.55Z"/><path class="cls-1" d="M164.53,41.68a.77.77,0,0,0,0-.15,4.69,4.69,0,0,1,.2-.86c-.08.12-.16.23-.23.36l-.06.13c-1.36,2.75-2.79,5.44-4.26,8.1-.8,1.47-1.63,2.93-2.47,4.37-10.45,19.45-17.22,44.48-21,70A200.56,200.56,0,0,0,164.4,42.74C164.44,42.39,164.5,42,164.53,41.68Zm126,162.74c-1.23-3.27-5.91-5-11.66-8.22a202.26,202.26,0,0,1-75.42-72.54c-3.78-25.55-10.55-50.58-21-70-.8-1.49-1.63-2.94-2.48-4.37-1.13-2-3.44-6.59-4.61-8.78V5.26a5.26,5.26,0,1,0-10.52,0V41.15a4.42,4.42,0,0,0,0,1,4.14,4.14,0,0,0,.09.6.83.83,0,0,0,0,.15c.17.72.32,1.43.49,2.15a199.09,199.09,0,0,1,3.92,22.52c.31,2.67.55,5.33.75,8a200.28,200.28,0,0,1,0,29.9,203.53,203.53,0,0,1-3.26,24.05,202.54,202.54,0,0,1-32.27,76.2,201.19,201.19,0,0,1-13.78,17.68c-4.32,4.95-8.1,8.22-8.14,11.72,0,2.83,3.48,4.83,7.77,6.15,1,.31,2,.58,3.08.81a206.49,206.49,0,0,0,46.6,5.1c6.54,0,13.11-.37,19.67-1,5.28-.54,9.6-8.46,12.62-21a159,159,0,0,0,3.24-19.4,202.38,202.38,0,0,1-32.27-76.2A274.63,274.63,0,0,0,178.52,90a289.36,289.36,0,0,0,26.82,49c28.12,41.95,63.83,75.64,78.52,74.86C288.13,211,291.63,207.42,290.5,204.42Z"/></svg>